<svg width="155" height="48" viewBox="0 0 155 48" fill="none" xmlns="http://www.w3.org/2000/svg">
<g id="Airbnb Logo" clip-path="url(#clip0_1_382)">
<path id="Vector" d="M81.6871 12.0602C81.6871 13.7901 80.2932 15.1831 78.5633 15.1831C76.8334 15.1831 75.4405 13.7901 75.4405 12.0602C75.4405 10.3304 76.7859 8.93741 78.5633 8.93741C80.3421 8.98541 81.6871 10.3788 81.6871 12.0602ZM68.8099 18.3548V19.1238C68.8099 19.1238 67.321 17.2009 64.1497 17.2009C58.913 17.2009 54.8283 21.1892 54.8283 26.7143C54.8283 32.192 58.865 36.2277 64.1497 36.2277C67.369 36.2277 68.8099 34.2579 68.8099 34.2579V35.0743C68.8099 35.4588 69.0989 35.7463 69.4828 35.7463H73.3741V17.68H69.4828C69.0989 17.6814 68.8099 18.0184 68.8099 18.3548ZM68.8099 29.9336C68.0899 30.9911 66.648 31.904 64.9186 31.904C61.8438 31.904 59.489 29.9821 59.489 26.7143C59.489 23.447 61.8438 21.5252 64.9186 21.5252C66.6005 21.5252 68.1379 22.4861 68.8099 23.495V29.9336ZM76.2574 17.6814H80.8697V35.7477H76.2574V17.6814ZM145.158 17.2005C141.986 17.2005 140.496 19.1233 140.496 19.1233V8.98542H135.884V35.7477H139.776C140.161 35.7477 140.448 35.4113 140.448 35.0748V34.2584C140.448 34.2584 141.938 36.2282 145.109 36.2282C150.346 36.2282 154.43 32.1934 154.43 26.7158C154.43 21.2381 150.346 17.2005 145.158 17.2005ZM144.389 31.8555C142.61 31.8555 141.217 30.9435 140.496 29.8856V23.447C141.217 22.4861 142.755 21.4772 144.389 21.4772C147.464 21.4772 149.818 23.399 149.818 26.6663C149.818 29.9336 147.464 31.8555 144.389 31.8555ZM133.482 25.0334V35.7958H128.869V25.5614C128.869 22.5831 127.908 21.3812 125.315 21.3812C123.922 21.3812 122.48 22.1021 121.566 23.1595V35.7482H116.955V17.6819H120.605C120.99 17.6819 121.278 18.0184 121.278 18.3548V19.1238C122.624 17.7299 124.401 17.2009 126.178 17.2009C128.197 17.2009 129.879 17.7784 131.224 18.9313C132.857 20.2767 133.482 22.0061 133.482 25.0334ZM105.758 17.2005C102.588 17.2005 101.098 19.1233 101.098 19.1233V8.98542H96.4857V35.7477H100.377C100.761 35.7477 101.05 35.4113 101.05 35.0748V34.2584C101.05 34.2584 102.54 36.2282 105.71 36.2282C110.948 36.2282 115.032 32.1934 115.032 26.7158C115.08 21.2376 110.996 17.2005 105.758 17.2005ZM104.989 31.8555C103.212 31.8555 101.819 30.9435 101.098 29.8856V23.447C101.819 22.4861 103.356 21.4772 104.989 21.4772C108.065 21.4772 110.419 23.399 110.419 26.6663C110.419 29.9336 108.065 31.8555 104.989 31.8555ZM92.4974 17.2005C93.8904 17.2005 94.6113 17.4414 94.6113 17.4414V21.7172C94.6113 21.7172 90.7676 20.4197 88.3657 23.159V35.7953H83.7525V17.6814H87.6447C88.0292 17.6814 88.3167 18.0179 88.3167 18.3544V19.1233C89.1826 18.1139 91.0565 17.2005 92.4974 17.2005ZM44.5949 34.1139C44.3549 33.5374 44.1144 32.9129 43.8744 32.384C43.4894 31.5195 43.105 30.7021 42.7695 29.9336L42.7215 29.8856C39.4057 22.6781 35.8509 15.3755 32.1026 8.16896L31.9586 7.87999C31.5644 7.13239 31.1802 6.37955 30.8062 5.62164C30.3252 4.75622 29.8452 3.84423 29.0763 2.97881C27.5389 1.05693 25.3285 -0.000488281 22.9746 -0.000488281C20.5718 -0.000488281 18.4099 1.05694 16.825 2.88234C16.1041 3.7468 15.5751 4.65975 15.0951 5.52517C14.7201 6.2826 14.336 7.03543 13.9427 7.78352L13.7982 8.07247C10.0984 15.279 6.49514 22.5821 3.17985 29.7892L3.13137 29.8847C2.79538 30.6546 2.41042 31.471 2.02595 32.335C1.78596 32.864 1.54596 33.4404 1.30597 34.0649C0.681019 35.8423 0.488534 37.5242 0.729489 39.2546C1.25796 42.8583 3.65983 45.8842 6.9756 47.2306C8.22502 47.7595 9.52243 47.9995 10.8674 47.9995C11.2518 47.9995 11.7318 47.9515 12.1168 47.903C13.7027 47.711 15.3361 47.183 16.922 46.2701C18.8919 45.1647 20.7657 43.5798 22.8796 41.2734C24.9935 43.5798 26.9154 45.1647 28.8373 46.2701C30.4236 47.183 32.0565 47.711 33.642 47.903C34.0264 47.952 34.5074 47.9995 34.8918 47.9995C36.2373 47.9995 37.5822 47.7595 38.7831 47.2306C42.1469 45.8842 44.5008 42.8103 45.0297 39.2546C45.4113 37.5732 45.2193 35.8922 44.5949 34.1139ZM22.9262 36.6122C20.3313 33.3449 18.6495 30.2701 18.0735 27.6762C17.8335 26.5708 17.785 25.6099 17.9295 24.7449C18.025 23.976 18.3139 23.303 18.6984 22.7266C19.6114 21.4301 21.1488 20.6127 22.9267 20.6127C24.705 20.6127 26.2904 21.3816 27.1554 22.7266C27.5398 23.303 27.8278 23.9765 27.9248 24.7449C28.0683 25.6104 28.0203 26.6188 27.7803 27.6762C27.2019 30.2221 25.52 33.2974 22.9262 36.6122ZM42.096 38.8706C41.76 41.3689 40.0781 43.5317 37.7243 44.4927C36.5713 44.9727 35.3214 45.1172 34.073 44.9727C32.8721 44.8282 31.6702 44.4437 30.4217 43.7238C28.6918 42.7619 26.9624 41.2734 24.9441 39.0626C28.1149 35.1713 30.0368 31.615 30.7577 28.4447C31.0942 26.9548 31.1427 25.6099 30.9977 24.36C30.8062 23.1591 30.3732 22.0536 29.7008 21.0927C28.2104 18.9299 25.7116 17.6814 22.9257 17.6814C20.1398 17.6814 17.641 18.9788 16.1516 21.0927C15.4791 22.0536 15.0462 23.1591 14.8542 24.36C14.6622 25.6099 14.7097 27.0028 15.0942 28.4447C15.8146 31.615 17.7845 35.2188 20.9073 39.1106C18.9375 41.3209 17.1596 42.8108 15.4297 43.7718C14.1803 44.4927 12.9798 44.8772 11.7789 45.0207C10.4819 45.1652 9.23205 44.9727 8.12711 44.5407C5.77324 43.5798 4.09135 41.4169 3.75536 38.9186C3.61136 37.7176 3.70688 36.5167 4.18783 35.1713C4.33135 34.6903 4.5723 34.2104 4.81229 33.6339C5.14877 32.8649 5.53228 32.0475 5.91723 31.2311L5.96572 31.1355C9.28053 23.976 12.8358 16.6729 16.5356 9.56236L16.6796 9.27341C17.0645 8.55343 17.449 7.78448 17.833 7.06353C18.2175 6.29459 18.6495 5.57364 19.1784 4.94869C20.1873 3.79672 21.5323 3.17129 23.0222 3.17129C24.5121 3.17129 25.857 3.79672 26.8659 4.94869C27.3949 5.57508 27.8269 6.29603 28.2113 7.06353C28.5963 7.78448 28.9808 8.55343 29.3643 9.27341L29.5088 9.56236C33.1521 16.7025 36.6602 23.9108 40.0311 31.1835V31.2315C40.4161 32.0014 40.7521 32.8654 41.1365 33.6353C41.3765 34.2108 41.617 34.6908 41.761 35.1718C42.1445 36.4198 42.2885 37.6217 42.096 38.8706Z" fill="#BCBCBC"/>
</g>
<defs>
<clipPath id="clip0_1_382">
<rect width="153.846" height="48" fill="white" transform="translate(0.606323)"/>
</clipPath>
</defs>
</svg>
