<svg width="100" height="23" viewBox="0 0 100 23" fill="none" xmlns="http://www.w3.org/2000/svg">
<path d="M0.594368 17.9796C0.429266 17.9796 0.288929 17.9218 0.173357 17.8063C0.0577857 17.6907 0 17.5504 0 17.3852V1.26303C0 1.08142 0.0577857 0.932826 0.173357 0.817255C0.288929 0.701683 0.429266 0.643897 0.594368 0.643897H11.3425C11.5241 0.643897 11.6727 0.701683 11.7883 0.817255C11.9039 0.932826 11.9616 1.08142 11.9616 1.26303V2.9966C11.9616 3.17821 11.9039 3.32681 11.7883 3.44238C11.6727 3.54144 11.5241 3.59097 11.3425 3.59097H3.39285V8.29638H10.8472C11.0288 8.29638 11.1774 8.35416 11.293 8.46974C11.4086 8.58531 11.4663 8.7339 11.4663 8.91551V10.6491C11.4663 10.8142 11.4086 10.9545 11.293 11.0701C11.1774 11.1857 11.0288 11.2435 10.8472 11.2435H3.39285V17.3852C3.39285 17.5504 3.33506 17.6907 3.21949 17.8063C3.10392 17.9218 2.95533 17.9796 2.77372 17.9796H0.594368Z" fill="#D64D00"/>
<path d="M18.5436 18.2273C17.5365 18.2273 16.6614 18.0044 15.9185 17.5586C15.192 17.0963 14.6307 16.4524 14.2344 15.6269C13.8382 14.7849 13.6401 13.7943 13.6401 12.6551V5.69602C13.6401 5.53092 13.6979 5.39058 13.8134 5.27501C13.929 5.15944 14.0693 5.10165 14.2344 5.10165H16.4138C16.5954 5.10165 16.7357 5.15944 16.8348 5.27501C16.9504 5.39058 17.0082 5.53092 17.0082 5.69602V12.5065C17.0082 14.5537 17.908 15.5774 19.7076 15.5774C20.5661 15.5774 21.243 15.305 21.7383 14.7601C22.2501 14.2153 22.5061 13.4641 22.5061 12.5065V5.69602C22.5061 5.53092 22.5638 5.39058 22.6794 5.27501C22.795 5.15944 22.9353 5.10165 23.1004 5.10165H25.2798C25.4449 5.10165 25.5852 5.15944 25.7008 5.27501C25.8164 5.39058 25.8741 5.53092 25.8741 5.69602V17.3852C25.8741 17.5504 25.8164 17.6907 25.7008 17.8063C25.5852 17.9218 25.4449 17.9796 25.2798 17.9796H23.2738C23.0922 17.9796 22.9436 17.9218 22.828 17.8063C22.7289 17.6907 22.6794 17.5504 22.6794 17.3852V16.3699C22.2336 16.9477 21.6805 17.4018 21.0201 17.732C20.3597 18.0622 19.5342 18.2273 18.5436 18.2273Z" fill="#D64D00"/>
<path d="M29.1207 17.9796C28.9556 17.9796 28.8153 17.9218 28.6997 17.8063C28.5841 17.6907 28.5264 17.5504 28.5264 17.3852V5.72079C28.5264 5.53917 28.5841 5.39058 28.6997 5.27501C28.8153 5.15944 28.9556 5.10165 29.1207 5.10165H31.1267C31.2918 5.10165 31.4321 5.15944 31.5477 5.27501C31.6798 5.39058 31.7458 5.53917 31.7458 5.72079V6.73616C32.1256 6.20784 32.6126 5.80334 33.207 5.52266C33.8179 5.24199 34.5196 5.10165 35.312 5.10165H36.3274C36.509 5.10165 36.6494 5.15944 36.7484 5.27501C36.864 5.39058 36.9218 5.53092 36.9218 5.69602V7.47912C36.9218 7.64423 36.864 7.78456 36.7484 7.90013C36.6494 8.01571 36.509 8.07349 36.3274 8.07349H34.3957C33.6032 8.07349 32.9841 8.29638 32.5383 8.74215C32.1091 9.17142 31.8944 9.7823 31.8944 10.5748V17.3852C31.8944 17.5504 31.8366 17.6907 31.7211 17.8063C31.6055 17.9218 31.4569 17.9796 31.2753 17.9796H29.1207Z" fill="#D64D00"/>
<path d="M38.8285 17.9796C38.6634 17.9796 38.5231 17.9218 38.4075 17.8063C38.2919 17.6907 38.2342 17.5504 38.2342 17.3852V5.69602C38.2342 5.53092 38.2919 5.39058 38.4075 5.27501C38.5231 5.15944 38.6634 5.10165 38.8285 5.10165H40.8593C41.0244 5.10165 41.1647 5.15944 41.2803 5.27501C41.3959 5.39058 41.4536 5.53092 41.4536 5.69602V6.7114C41.8829 6.18307 42.4278 5.74555 43.0882 5.39884C43.7651 5.03561 44.5988 4.854 45.5895 4.854C46.5966 4.854 47.4716 5.08514 48.2146 5.54743C48.9575 5.9932 49.5271 6.62885 49.9234 7.45436C50.3361 8.27987 50.5425 9.27048 50.5425 10.4262V17.3852C50.5425 17.5504 50.4847 17.6907 50.3692 17.8063C50.2536 17.9218 50.1133 17.9796 49.9482 17.9796H47.7688C47.6037 17.9796 47.4634 17.9218 47.3478 17.8063C47.2322 17.6907 47.1744 17.5504 47.1744 17.3852V10.5748C47.1744 9.6172 46.935 8.86598 46.4562 8.32114C45.994 7.77631 45.317 7.50389 44.4255 7.50389C43.567 7.50389 42.8818 7.77631 42.37 8.32114C41.8582 8.86598 41.6022 9.6172 41.6022 10.5748V17.3852C41.6022 17.5504 41.5445 17.6907 41.4289 17.8063C41.3133 17.9218 41.173 17.9796 41.0079 17.9796H38.8285Z" fill="#D64D00"/>
<path d="M53.6635 17.9796C53.4984 17.9796 53.3581 17.9218 53.2425 17.8063C53.1269 17.6907 53.0692 17.5504 53.0692 17.3852V5.69602C53.0692 5.53092 53.1269 5.39058 53.2425 5.27501C53.3581 5.15944 53.4984 5.10165 53.6635 5.10165H55.7191C55.9007 5.10165 56.041 5.15944 56.1401 5.27501C56.2556 5.39058 56.3134 5.53092 56.3134 5.69602V17.3852C56.3134 17.5504 56.2556 17.6907 56.1401 17.8063C56.041 17.9218 55.9007 17.9796 55.7191 17.9796H53.6635ZM53.5645 2.97184C53.3994 2.97184 53.259 2.91405 53.1435 2.79848C53.0279 2.68291 52.9701 2.54257 52.9701 2.37747V0.594367C52.9701 0.429265 53.0279 0.288928 53.1435 0.173356C53.259 0.0577855 53.3994 0 53.5645 0H55.8181C55.9997 0 56.1483 0.0577855 56.2639 0.173356C56.3795 0.288928 56.4372 0.429265 56.4372 0.594367V2.37747C56.4372 2.54257 56.3795 2.68291 56.2639 2.79848C56.1483 2.91405 55.9997 2.97184 55.8181 2.97184H53.5645Z" fill="#D64D00"/>
<path d="M68.1679 22.685C68.0028 22.685 67.8624 22.6272 67.7469 22.5117C67.6313 22.3961 67.5735 22.2558 67.5735 22.0907V16.4689C67.1773 16.9973 66.6654 17.4265 66.0381 17.7567C65.4107 18.0704 64.6512 18.2273 63.7597 18.2273C62.9176 18.2273 62.1664 18.0787 61.506 17.7815C60.8621 17.4843 60.3173 17.0798 59.8715 16.568C59.4422 16.0397 59.112 15.4288 58.8809 14.7354C58.6497 14.0254 58.5177 13.2577 58.4846 12.4322C58.4681 12.135 58.4599 11.8378 58.4599 11.5406C58.4599 11.2435 58.4681 10.9545 58.4846 10.6738C58.5342 9.81532 58.6663 9.03108 58.8809 8.32114C59.112 7.61121 59.4422 7.00033 59.8715 6.48851C60.3173 5.96018 60.8621 5.55568 61.506 5.27501C62.1664 4.99434 62.9176 4.854 63.7597 4.854C64.7172 4.854 65.518 5.02736 66.1619 5.37407C66.8223 5.72079 67.3424 6.15831 67.7221 6.68663V5.69602C67.7221 5.53092 67.7799 5.39058 67.8955 5.27501C68.011 5.15944 68.1514 5.10165 68.3165 5.10165H70.2977C70.4628 5.10165 70.6031 5.15944 70.7187 5.27501C70.8343 5.39058 70.8921 5.53092 70.8921 5.69602V22.0907C70.8921 22.2558 70.8343 22.3961 70.7187 22.5117C70.6031 22.6272 70.4628 22.685 70.2977 22.685H68.1679ZM64.7007 15.5774C65.3611 15.5774 65.8977 15.4288 66.3105 15.1316C66.7232 14.8344 67.0287 14.4629 67.2268 14.0172C67.4414 13.5549 67.557 13.0761 67.5735 12.5808C67.6065 12.2671 67.623 11.9451 67.623 11.6149C67.623 11.2847 67.6065 10.971 67.5735 10.6738C67.557 10.162 67.4497 9.66673 67.2516 9.18793C67.0534 8.69262 66.748 8.28812 66.3352 7.97443C65.9225 7.66074 65.3776 7.50389 64.7007 7.50389C64.0073 7.50389 63.4542 7.66074 63.0415 7.97443C62.6287 8.27161 62.3315 8.66786 62.1499 9.16317C61.9848 9.65847 61.8857 10.2033 61.8527 10.7977C61.8197 11.293 61.8197 11.7883 61.8527 12.2836C61.8857 12.878 61.9848 13.4228 62.1499 13.9181C62.3315 14.4134 62.6287 14.8179 63.0415 15.1316C63.4542 15.4288 64.0073 15.5774 64.7007 15.5774Z" fill="#D64D00"/>
<path d="M78.3528 18.2273C77.3457 18.2273 76.4706 18.0044 75.7277 17.5586C75.0012 17.0963 74.4399 16.4524 74.0436 15.6269C73.6474 14.7849 73.4493 13.7943 73.4493 12.6551V5.69602C73.4493 5.53092 73.5071 5.39058 73.6226 5.27501C73.7382 5.15944 73.8785 5.10165 74.0436 5.10165H76.223C76.4046 5.10165 76.5449 5.15944 76.644 5.27501C76.7596 5.39058 76.8174 5.53092 76.8174 5.69602V12.5065C76.8174 14.5537 77.7172 15.5774 79.5168 15.5774C80.3753 15.5774 81.0522 15.305 81.5475 14.7601C82.0593 14.2153 82.3153 13.4641 82.3153 12.5065V5.69602C82.3153 5.53092 82.373 5.39058 82.4886 5.27501C82.6042 5.15944 82.7445 5.10165 82.9096 5.10165H85.089C85.2541 5.10165 85.3944 5.15944 85.51 5.27501C85.6256 5.39058 85.6833 5.53092 85.6833 5.69602V17.3852C85.6833 17.5504 85.6256 17.6907 85.51 17.8063C85.3944 17.9218 85.2541 17.9796 85.089 17.9796H83.083C82.9014 17.9796 82.7528 17.9218 82.6372 17.8063C82.5381 17.6907 82.4886 17.5504 82.4886 17.3852V16.3699C82.0428 16.9477 81.4897 17.4018 80.8293 17.732C80.1689 18.0622 79.3434 18.2273 78.3528 18.2273Z" fill="#D64D00"/>
<path d="M93.883 18.2273C92.0503 18.2273 90.5974 17.6989 89.5243 16.6423C88.4511 15.5856 87.8733 14.0832 87.7907 12.135C87.7742 11.9699 87.7659 11.7635 87.7659 11.5159C87.7659 11.2517 87.7742 11.0453 87.7907 10.8967C87.8567 9.64196 88.1374 8.5688 88.6327 7.67725C89.1445 6.76919 89.8462 6.07576 90.7378 5.59696C91.6293 5.10165 92.6777 4.854 93.883 4.854C95.2203 4.854 96.343 5.13467 97.2511 5.69602C98.1591 6.24086 98.8443 7.00858 99.3066 7.9992C99.7689 8.9733 100 10.1042 100 11.392V11.9121C100 12.0772 99.9422 12.2176 99.8266 12.3331C99.7111 12.4487 99.5625 12.5065 99.3809 12.5065H91.1588C91.1588 12.5065 91.1588 12.5312 91.1588 12.5808C91.1588 12.6303 91.1588 12.6716 91.1588 12.7046C91.1753 13.2825 91.2826 13.819 91.4807 14.3143C91.6954 14.7931 92.0008 15.1811 92.3971 15.4783C92.8098 15.7755 93.2969 15.9241 93.8582 15.9241C94.3205 15.9241 94.7085 15.8581 95.0222 15.726C95.3359 15.5774 95.5918 15.4123 95.7899 15.2307C95.988 15.0491 96.1284 14.9005 96.2109 14.7849C96.3595 14.5868 96.4751 14.4712 96.5576 14.4382C96.6567 14.3886 96.797 14.3639 96.9786 14.3639H99.1085C99.2736 14.3639 99.4056 14.4134 99.5047 14.5125C99.6203 14.6115 99.6698 14.7354 99.6533 14.884C99.6368 15.1481 99.4964 15.4701 99.2323 15.8498C98.9846 16.2295 98.6214 16.601 98.1426 16.9642C97.6638 17.3275 97.0612 17.6329 96.3347 17.8806C95.6248 18.1117 94.8075 18.2273 93.883 18.2273ZM91.1588 10.4262H96.6319V10.3519C96.6319 9.708 96.5246 9.14666 96.31 8.66786C96.0953 8.17255 95.7816 7.79282 95.3689 7.52865C94.9561 7.24798 94.4608 7.10764 93.883 7.10764C93.3051 7.10764 92.8098 7.24798 92.3971 7.52865C91.9843 7.79282 91.6706 8.17255 91.456 8.66786C91.2579 9.14666 91.1588 9.708 91.1588 10.3519V10.4262Z" fill="#D64D00"/>
</svg>
