<svg width="148" height="48" viewBox="0 0 148 48" fill="none" xmlns="http://www.w3.org/2000/svg">
<g id="Google Logo" clip-path="url(#clip0_1_374)">
<path id="Vector" d="M18.6584 0.00415039H19.9661C24.5062 0.102848 28.9723 1.92875 32.1799 5.16108C30.9956 6.37012 29.7865 7.52981 28.6268 8.73885C26.8256 7.11035 24.6543 5.85196 22.2855 5.40782C18.7818 4.66759 15.0066 5.3338 12.0704 7.33242C8.86271 9.42973 6.69137 12.9828 6.22256 16.7827C5.7044 20.5332 6.7654 24.4811 9.20815 27.3926C11.5522 30.2302 15.13 32.0067 18.8311 32.1301C22.2855 32.3275 25.888 31.2665 28.4048 28.8484C30.3787 27.1459 31.2917 24.5551 31.5877 22.0383C27.4918 22.0383 23.3959 22.063 19.2999 22.0383V16.9554H36.5473C37.4356 22.4084 36.1525 28.5523 32.0072 32.4509C29.2437 35.2144 25.4192 36.8429 21.5206 37.1636C17.7455 37.5338 13.8469 36.8182 10.4912 34.9923C6.4693 32.8456 3.26164 29.2185 1.68249 24.9499C0.202031 21.0267 0.177356 16.5853 1.55912 12.6374C2.81751 9.03494 5.23559 5.85196 8.34455 3.63127C11.3301 1.43526 14.9573 0.226219 18.6584 0.00415039Z" fill="#BCBCBC"/>
<path id="Vector_2" d="M117.602 1.28735H122.883V36.5223C121.131 36.5223 119.354 36.5469 117.602 36.4976C117.627 24.7773 117.602 13.0323 117.602 1.28735Z" fill="#BCBCBC"/>
<path id="Vector_3" d="M48.2923 13.5011C51.5493 12.8842 55.0777 13.5751 57.7672 15.5244C60.21 17.2516 61.9125 19.9658 62.4306 22.9267C63.0969 26.3564 62.2579 30.1069 60.0372 32.8211C57.6438 35.856 53.7206 37.4845 49.8961 37.2378C46.3924 37.0404 42.9873 35.2885 40.9147 32.4263C38.5706 29.268 38.0031 24.9253 39.2862 21.2242C40.5692 17.2516 44.1963 14.2167 48.2923 13.5011ZM49.0325 18.1892C47.7001 18.5347 46.4664 19.2996 45.5781 20.3852C43.1847 23.2475 43.3327 27.9109 45.9729 30.5757C47.478 32.1055 49.7481 32.8211 51.8454 32.4016C53.7946 32.0562 55.4972 30.7484 56.4348 29.0212C58.0633 26.085 57.5945 22.0384 55.1024 19.7437C53.4986 18.2632 51.1545 17.6464 49.0325 18.1892Z" fill="#BCBCBC"/>
<path id="Vector_4" d="M74.447 13.5011C78.1728 12.7855 82.2441 13.8219 85.0323 16.4373C89.5723 20.5086 90.0658 28.133 86.192 32.8211C83.8479 35.782 80.0481 37.4105 76.2976 37.2378C72.7198 37.1391 69.1914 35.3625 67.0694 32.4263C64.676 29.1939 64.1578 24.7526 65.5149 20.9774C66.872 17.1282 70.4251 14.192 74.447 13.5011ZM75.1872 18.1892C73.8548 18.5346 72.6211 19.2996 71.7328 20.3605C69.3641 23.1734 69.4628 27.7628 72.0042 30.4523C73.5094 32.0562 75.8534 32.8457 78.0248 32.4016C79.9494 32.0315 81.6766 30.7484 82.6142 29.0212C84.218 26.0603 83.7492 22.0137 81.2324 19.719C79.6286 18.2386 77.2845 17.6464 75.1872 18.1892Z" fill="#BCBCBC"/>
<path id="Vector_5" d="M96.6292 14.9322C99.4668 13.1557 103.242 12.6622 106.302 14.192C107.264 14.6115 108.053 15.327 108.818 16.0426C108.843 15.3764 108.818 14.6855 108.843 13.9946C110.496 14.0193 112.149 13.9946 113.827 14.0193V35.782C113.803 39.0637 112.964 42.5428 110.595 44.9362C108.004 47.5763 104.031 48.3906 100.454 47.8478C96.6292 47.2802 93.2982 44.4921 91.8177 40.9636C93.2982 40.2481 94.8527 39.6806 96.3825 39.0144C97.2461 41.0376 98.9979 42.7648 101.194 43.1596C103.39 43.5544 105.931 43.0116 107.363 41.1857C108.892 39.3104 108.892 36.7443 108.818 34.4496C107.683 35.56 106.376 36.5469 104.796 36.917C101.367 37.8793 97.5915 36.695 94.9514 34.3756C92.2865 32.0562 90.7074 28.4784 90.8554 24.9253C90.9294 20.9034 93.1995 17.0296 96.6292 14.9322ZM101.737 18.0905C100.232 18.3373 98.8252 19.1762 97.8629 20.3359C95.5435 23.0994 95.5435 27.5161 97.8876 30.2303C99.22 31.8341 101.367 32.7224 103.439 32.5003C105.389 32.3029 107.19 31.0692 108.152 29.3667C109.781 26.4798 109.509 22.5566 107.313 20.0398C105.956 18.4853 103.785 17.7204 101.737 18.0905Z" fill="#BCBCBC"/>
<path id="Vector_6" d="M129.224 16.1905C132.185 13.427 136.75 12.4894 140.549 13.9452C144.152 15.3022 146.447 18.732 147.606 22.2604C142.252 24.4811 136.922 26.6771 131.568 28.8978C132.308 30.3042 133.443 31.5873 134.973 32.1054C137.12 32.8704 139.686 32.5989 141.487 31.1678C142.203 30.625 142.77 29.9094 143.313 29.2186C144.67 30.1315 146.027 31.0198 147.384 31.9327C145.46 34.8196 142.227 36.8429 138.748 37.1637C134.899 37.6325 130.803 36.152 128.311 33.1418C124.215 28.4043 124.61 20.4592 129.224 16.1905ZM131.864 20.7553C131.025 21.9643 130.68 23.4448 130.704 24.9006C134.282 23.4201 137.86 21.9396 141.438 20.4345C140.846 19.0527 139.414 18.2138 137.959 17.9917C135.615 17.5723 133.172 18.8307 131.864 20.7553Z" fill="#BCBCBC"/>
</g>
<defs>
<clipPath id="clip0_1_374">
<rect width="147.059" height="48" fill="white" transform="translate(0.547485)"/>
</clipPath>
</defs>
</svg>
