<svg width="222" height="34" viewBox="0 0 222 34" fill="none" xmlns="http://www.w3.org/2000/svg">
<g id="Samsung Logo">
<path id="a" d="M15.1216 23.8201C15.4256 24.5866 15.3292 25.5688 15.1809 26.1641C14.9213 27.2208 14.2094 28.2998 12.1032 28.2998C10.1305 28.2998 8.92912 27.1539 8.92912 25.4274V22.3541H0.452515V24.7949C0.452515 31.8643 5.99234 34 11.9326 34C17.643 34 22.3448 32.0503 23.0939 26.7595C23.4795 24.021 23.1977 22.2276 23.0642 21.5653C21.7293 14.9276 9.74489 12.9481 8.84754 9.23486C8.72293 8.68727 8.71283 8.11969 8.81787 7.56798C9.04036 6.54851 9.73005 5.43973 11.7027 5.43973C13.5568 5.43973 14.6321 6.58571 14.6321 8.31213V10.2767H22.5154V8.04423C22.5154 1.13858 16.3378 0.0595703 11.8733 0.0595703C6.2519 0.0595703 1.66134 1.92737 0.82332 7.09917C0.600837 8.51305 0.563756 9.77809 0.897481 11.3706C2.26946 17.8446 13.49 19.7199 15.1216 23.8201Z" fill="#BCBCBC"/>
<path id="Vector" d="M34.2701 1.07165L28.4114 32.7647H36.9473L41.2709 4.00358H41.4489L45.6538 32.7647H54.1453L48.3236 1.06421L34.2701 1.07165ZM81.9927 1.07165L78.0993 25.301H77.9139L74.0278 1.07165H61.1461L60.4489 32.7647H68.3545L68.5473 4.27147H68.7253L73.9982 32.7647H82.015L87.2952 4.27891H87.4658L87.666 32.7647H95.5642L94.8671 1.06421L81.9927 1.07165Z" fill="#BCBCBC"/>
<path id="a_2" d="M117.813 23.7605C118.117 24.527 118.02 25.5093 117.872 26.1046C117.612 27.1613 116.9 28.2403 114.794 28.2403C112.821 28.2403 111.62 27.0943 111.62 25.3679V22.2945H103.143V24.7353C103.143 31.8047 108.683 33.9404 114.624 33.9404C120.334 33.9404 125.036 31.9907 125.785 26.6999C126.17 23.9614 125.889 22.168 125.755 21.5058C124.42 14.868 112.436 12.8886 111.538 9.17529C111.414 8.6277 111.404 8.06012 111.509 7.50841C111.731 6.48893 112.421 5.38016 114.394 5.38016C116.248 5.38016 117.323 6.52614 117.323 8.25256V10.2171H125.206V7.98466C125.206 1.07901 119.029 0 114.564 0C108.943 0 104.352 1.8678 103.514 7.0396C103.292 8.45347 103.255 9.71852 103.588 11.311C104.96 17.785 116.181 19.6603 117.813 23.7605Z" fill="#BCBCBC"/>
<path id="Vector_2" d="M144.325 28.017C146.52 28.017 147.195 26.499 147.351 25.7251C147.418 25.3828 147.425 24.9214 147.425 24.5121V1.07158H155.42V23.7903C155.421 24.4855 155.396 25.1806 155.345 25.8739C154.789 31.7899 150.132 33.7097 144.325 33.7097C138.511 33.7097 133.853 31.7899 133.297 25.8739C133.275 25.5614 133.216 24.3707 133.223 23.7903V1.06414H141.218V24.5047C141.21 24.9214 141.225 25.3828 141.292 25.7251C141.44 26.499 142.122 28.017 144.325 28.017ZM182.948 1.07158L183.378 25.9483H183.208L175.94 1.07158H164.222V32.4298H171.987L171.557 6.68987H171.728L179.522 32.4298H190.772V1.07158H182.948ZM210.202 27.6896C212.486 27.6896 213.287 26.2385 213.428 25.3828C213.495 25.033 213.502 24.5865 213.502 24.1921V19.5784H210.262V14.9648H221.452V23.4629C221.452 24.0582 221.438 24.4898 221.341 25.5465C220.822 31.321 215.831 33.3823 210.232 33.3823C204.633 33.3823 199.649 31.321 199.123 25.5465C199.034 24.4898 199.011 24.0582 199.011 23.4629V10.1278C199.011 9.56227 199.086 8.56511 199.145 8.04421C199.849 2.11338 204.633 0.208374 210.232 0.208374C215.831 0.208374 220.741 2.0985 221.319 8.03677C221.423 9.04881 221.393 10.1204 221.393 10.1204V11.1845H213.428V9.406C213.428 9.406 213.428 8.66185 213.332 8.20048C213.184 7.50099 212.59 5.89364 210.173 5.89364C207.874 5.89364 207.199 7.41913 207.028 8.20048C206.932 8.6172 206.895 9.18275 206.895 9.69621V24.1847C206.895 24.5865 206.909 25.033 206.969 25.3902C207.117 26.2385 207.918 27.6896 210.202 27.6896Z" fill="#BCBCBC"/>
</g>
</svg>
